Coordinates
version=1
nRows=14
nColumns=40
inDegrees=yes

Units are S.I. units (second, meters, Newtons, ...)
Angles are in degrees.

endheader
time	pelvis_tilt	pelvis_list	pelvis_rotation	pelvis_tx	pelvis_ty	pelvis_tz	hip_flexion_r	hip_adduction_r	hip_rotation_r	knee_angle_r	knee_angle_r_beta	ankle_angle_r	subtalar_angle_r	mtp_angle_r	hip_flexion_l	hip_adduction_l	hip_rotation_l	knee_angle_l	knee_angle_l_beta	ankle_angle_l	subtalar_angle_l	mtp_angle_l	lumbar_extension	lumbar_bending	lumbar_rotation	arm_flex_r	arm_add_r	arm_rot_r	elbow_flex_r	pro_sup_r	wrist_flex_r	wrist_dev_r	arm_flex_l	arm_add_l	arm_rot_l	elbow_flex_l	pro_sup_l	wrist_flex_l	wrist_dev_l
     11.23250000	     -5.56343750	     -4.25942141	      8.84968368	      1.04285647	      0.91421337	      0.52040649	     -1.67039590	      2.06935135	    -18.51901191	     16.44433796	     16.44433796	     18.75610766	     -5.34236311	     -2.23088537	     29.23506454	     -4.62670313	      5.10130639	     28.44150021	     28.44150021	      7.58688839	    -14.24961433	      4.05792979	     -8.42378314	      1.93736725	      4.90221941	     48.94742307	    -15.85793037	     -3.90709126	     98.83958184	     44.40446367	      0.00000000	      0.00000000	    -10.35255256	     -8.93583367	     -4.91774553	     37.33894933	     45.80899806	      0.00000000	      0.00000000
     11.25200000	     -5.71280640	     -4.24229568	      8.65605727	      1.04443152	      0.91512122	      0.51665220	     -1.93816341	      1.69136051	    -18.67785127	     16.62226090	     16.62226090	     18.25696569	     -4.83483841	     -2.61630910	     28.78885497	     -4.40750605	      5.08939430	     28.45155514	     28.45155514	      8.06880340	    -14.56570784	      4.43541561	     -8.26201789	      1.86382804	      5.18289909	     48.68445701	    -15.90058813	     -4.01845974	     96.68017367	     44.48912735	      0.00000000	      0.00000000	     -9.49879539	     -8.92556983	     -4.97113296	     39.03457103	     45.83982342	      0.00000000	      0.00000000
     11.27150000	     -5.86333790	     -4.22302872	      8.48234159	      1.04576550	      0.91607336	      0.51282922	     -2.20185537	      1.27480663	    -18.98815392	     16.75067000	     16.75067000	     17.40647305	     -4.22925581	     -3.96652614	     28.37853340	     -4.17353137	      5.07469571	     28.49814551	     28.49814551	      8.75227566	    -14.76141211	      5.44243103	     -8.12367479	      1.84399783	      4.51695011	     49.01507483	    -14.76225611	     -3.76839514	     93.09057632	     44.63173368	      0.00000000	      0.00000000	     -9.67827032	     -9.14147729	     -4.75324938	     42.24501546	     45.85295009	      0.00000000	      0.00000000
     11.29100000	     -6.00346583	     -4.23775452	      8.25644754	      1.04702446	      0.91721026	      0.50909806	     -2.47005154	      0.94360075	    -19.01290239	     16.85073043	     16.85073043	     16.78760503	     -3.84259583	     -4.22251219	     27.85391807	     -4.02866247	      4.92985050	     28.31838368	     28.31838368	      9.04728746	    -14.95228069	      5.63793865	     -8.03121359	      1.86621360	      5.05020316	     48.37799009	    -15.27112618	     -3.93161584	     90.97362119	     44.70998118	      0.00000000	      0.00000000	     -8.40927378	     -9.13339386	     -4.75636726	     43.53091379	     45.88225831	      0.00000000	      0.00000000
     11.31050000	     -6.17421921	     -4.25810561	      8.05586464	      1.04804563	      0.91820191	      0.50528097	     -2.72799685	      0.54563744	    -19.42452981	     16.87999693	     16.87999693	     15.82596474	     -3.00605977	     -5.87696449	     27.43350861	     -3.83716836	      4.87181724	     28.24669480	     28.24669480	      9.52437624	    -15.21947392	      6.41720944	     -7.87337610	      1.95189533	      4.50265473	     48.65052602	    -14.29093047	     -4.14972716	     86.48598822	     44.88497192	      0.00000000	      0.00000000	     -8.17640471	     -9.51265874	     -4.09449278	     46.10057280	     45.86417692	      0.00000000	      0.00000000
     11.33000000	     -6.32027436	     -4.32148571	      7.79163444	      1.04899710	      0.91933539	      0.50154737	     -3.00985860	      0.26045650	    -19.41912832	     16.85791380	     16.85791380	     15.11730414	     -2.47954768	     -6.19349246	     26.93263993	     -3.73267153	      4.75846028	     28.05052015	     28.05052015	      9.77380535	    -15.44087689	      6.63567074	     -7.80420532	      2.08948739	      5.07307885	     47.79961111	    -14.91126039	     -4.40529572	     84.04168257	     44.97443627	      0.00000000	      0.00000000	     -6.84611814	     -9.56064664	     -4.07076842	     47.41378024	     45.89455489	      0.00000000	      0.00000000
     11.34950000	     -6.49431819	     -4.37064843	      7.50795161	      1.04977270	      0.92023288	      0.49782106	     -3.28627383	     -0.11598112	    -19.87440710	     16.77678582	     16.77678582	     14.14950265	     -1.46584510	     -7.96959845	     26.53668774	     -3.59477410	      4.62099957	     27.99021778	     27.99021778	     10.21362492	    -15.78263286	      7.41574033	     -7.64275764	      2.24859421	      4.55350766	     47.99454173	    -13.98501832	     -5.00938475	     78.77334233	     45.17778777	      0.00000000	      0.00000000	     -6.42441837	    -10.11093718	     -3.13632913	     49.55206467	     45.86232980	      0.00000000	      0.00000000
     11.36900000	     -6.62883851	     -4.46443118	      7.16423891	      1.05048285	      0.92112838	      0.49423567	     -3.59448782	     -0.38391709	    -19.97158591	     16.64321673	     16.64321673	     13.21148670	     -0.82338249	     -9.24226562	     26.11353486	     -3.54036294	      4.45256638	     27.94788772	     27.94788772	     10.65902775	    -16.04196278	      8.03609300	     -7.56556410	      2.48030106	      4.58091394	     47.58052772	    -13.90129727	     -5.45772398	     74.50364399	     45.33726196	      0.00000000	      0.00000000	     -5.58766340	    -10.46239606	     -2.66261287	     51.34254080	     45.88500544	      0.00000000	      0.00000000
     11.38850000	     -6.78609085	     -4.57584983	      6.76442006	      1.05113297	      0.92188607	      0.49075513	     -3.83418050	     -0.63011912	    -19.92266419	     16.58368075	     16.58368075	     12.62463052	     -0.14685416	     -9.53595819	     25.71405077	     -3.52206519	      4.26247558	     27.89405745	     27.89405745	     10.97627311	    -16.35161177	      8.22082797	     -7.50659898	      2.71019540	      5.18889662	     46.32540264	    -14.68813179	     -5.91601257	     71.69779592	     45.44195100	      0.00000000	      0.00000000	     -4.21392425	    -10.61336292	     -2.63695606	     52.53375579	     45.91846523	      0.00000000	      0.00000000
     11.40800000	     -6.90085870	     -4.64068266	      6.34268214	      1.05165810	      0.92244663	      0.48728055	     -4.05529576	     -1.00859003	    -20.14580639	     16.64375581	     16.64375581	     11.81432108	      0.79392060	    -10.97860701	     25.35096009	     -3.45049989	      4.06760070	     28.01351408	     28.01351408	     11.59830724	    -16.63762774	      9.02319330	     -7.41044491	      2.96630280	      4.75920404	     46.35502200	    -13.76595337	     -7.08480940	     65.58792016	     45.68093255	      0.00000000	      0.00000000	     -3.52271939	    -11.41368607	     -1.34729854	     53.95991983	     45.87181481	      0.00000000	      0.00000000
     11.42750000	     -7.00779362	     -4.73274826	      5.85116043	      1.05219646	      0.92289104	      0.48395557	     -4.17774962	     -1.31586207	    -19.91870276	     16.86472105	     16.86472105	     11.31289332	      1.19075383	    -11.28476184	     24.96244274	     -3.44755065	      3.80370631	     28.09717236	     28.09717236	     12.02469085	    -16.94913761	      9.15366185	     -7.42235096	      3.21486218	      5.29246127	     44.72819623	    -14.56417581	     -7.50500152	     62.88139080	     45.77930392	      0.00000000	      0.00000000	     -2.18407356	    -11.63007419	     -1.38169284	     55.10819787	     45.91082160	      0.00000000	      0.00000000
     11.44700000	     -7.05142864	     -4.80421485	      5.34378701	      1.05262388	      0.92318659	      0.48064448	     -4.19715900	     -1.72574922	    -19.76056825	     17.41079614	     17.41079614	     10.79189676	      1.59824380	    -12.11307085	     24.55676406	     -3.43683000	      3.48782635	     28.27123463	     28.27123463	     12.58875615	    -17.23107357	      9.51320400	     -7.45777812	      3.49770774	      5.62086225	     43.56802053	    -14.88990702	     -8.31433749	     58.62224115	     45.94540568	      0.00000000	      0.00000000	     -0.88570707	    -12.06906172	     -0.79092403	     56.19816823	     45.90423663	      0.00000000	      0.00000000
     11.46650000	     -7.05053880	     -4.84584174	      4.84949775	      1.05312514	      0.92339293	      0.47733263	     -4.20770194	     -2.14954347	    -19.41963233	     17.99471392	     17.99471392	      9.77152750	      1.43443645	    -14.08651704	     24.15843944	     -3.36569324	      3.28128886	     28.59660829	     28.59660829	     13.47715704	    -17.42939597	     10.51995867	     -7.43996928	      3.77336995	      4.95555628	     43.55485565	    -13.83800639	     -9.99912720	     51.81239179	     46.22363096	      0.00000000	      0.00000000	     -0.11396309	    -13.22992105	      0.92893186	     57.06968929	     45.83717135	      0.00000000	      0.00000000
     11.48600000	     -7.02693733	     -4.86489532	      4.31969457	      1.05355834	      0.92344903	      0.47404249	     -3.90117480	     -2.70402296	    -18.93387816	     19.26644574	     19.26644574	      9.23307736	      1.10438439	    -14.91107276	     23.71143846	     -3.31061520	      2.94586096	     28.84940008	     28.84940008	     14.04344891	    -17.64960658	     10.62185053	     -7.58152443	      3.99844413	      5.19469633	     41.54581445	    -14.39442141	    -10.53618505	     49.16166409	     46.32197462	      0.00000000	      0.00000000	      1.21328665	    -13.56654678	      0.89719542	     57.98971175	     45.88162779	      0.00000000	      0.00000000
